<?xml version="1.0" encoding="UTF-8" standalone="no"?><!DOCTYPE svg PUBLIC "-//W3C//DTD SVG 1.1//EN" "http://www.w3.org/Graphics/SVG/1.1/DTD/svg11.dtd"><svg width="100%" height="100%" viewBox="0 0 500 500" version="1.1" xmlns="http://www.w3.org/2000/svg" xmlns:xlink="http://www.w3.org/1999/xlink" xml:space="preserve" xmlns:serif="http://www.serif.com/" style="fill-rule:evenodd;clip-rule:evenodd;stroke-linejoin:round;stroke-miterlimit:1.41421;"><path d="M456.321,176.656c0.081,-0.419 0.116,-0.653 0.116,-0.653c0,0 0.605,-0.505 4.465,-0.51c3.86,-0.005 4.102,0.657 4.102,0.657c0,0 3.004,8.257 -3.699,17.67c9.271,-0.713 13.397,-1.839 13.397,-1.839c0,0 1.108,1.354 1.663,3.808c0.458,2.026 -0.086,3.527 -0.291,3.99c-8.215,2.162 -16.202,5.225 -23.882,8.854c-11.694,5.526 -23.45,13.601 -32.438,23.719c-2.387,2.687 -7.582,9.805 -9.782,14.047c-1.947,2.821 -6.571,14.404 -6.571,29.15c0,17.054 6.234,30.99 18.337,44.193c12.102,13.202 29.138,31.21 37.018,41.258c7.572,9.656 7.477,16.893 -8.353,13.409c-15.829,-3.484 -38.567,-6.418 -52.687,-12.286c-11.356,-4.719 -33.38,-17.079 -31.955,-30.496c0.073,-0.683 0.145,-1.325 0.216,-1.922c0.516,-1.816 1.214,-3.507 2.561,-4.887c3.201,-3.279 7.741,-1.319 9.81,-3.567c1.723,-1.872 -0.02,-5.363 -2.651,-5.385c-0.175,-0.001 -0.174,-0.001 -0.349,0.001c-9.314,0.136 -15.044,7.431 -16.002,15.622c-0.495,4.231 -4.635,6.271 -8.276,6.724c-7.478,0.929 -14.021,-2.726 -17.364,-8.423c-1.797,-5.351 -4.471,-14.211 -5.613,-22.534c-0.951,-6.93 -0.517,-23.216 0.983,-38.031c0.341,-2.198 0.732,-4.389 1.176,-6.567c3.066,-15.038 11.148,-27.535 23.814,-33.405c1.713,-0.793 3.477,-1.475 5.277,-2.043c1.552,-0.489 3.294,-0.842 4.884,-1.245c4.758,10.047 12.094,18.932 20.942,25.553c-3.528,11.25 -3.203,23.847 0.222,35.689c0.854,6.825 0.186,13.856 -2.186,20.271c-2.143,5.649 4.563,5.907 5.809,2.775c1.083,-2.725 1.866,-5.579 2.379,-8.492c1.634,2.983 3.48,5.841 5.522,8.53c1.904,2.507 4.484,2.76 5.851,1.029c1.27,-1.609 -0.084,-4.078 -0.084,-4.078c-4.739,-5.761 -8.401,-12.568 -10.749,-19.81c-0.144,-1.41 -0.427,-2.706 -1.05,-3.606c-2.315,-8.931 -2.642,-18.353 -0.559,-27.175c1.313,-5.562 4.083,-10.677 6.84,-15.727c3.296,-6.089 9.537,-12.294 11.533,-19.708c1.711,-6.353 -1.156,-12.33 -4.729,-17.452c-2.97,-4.257 1.339,-8.02 5.237,-10.76c4.279,-3.008 4.507,0.451 5.984,2.408c8.769,11.623 28.134,9.774 36.432,-1.269c4.002,-5.325 5.225,-11.374 4.7,-17.487Zm21.528,192.069c-16.712,-22.115 -33.001,-36.705 -37.325,-41.395c-13.486,-14.631 -24.153,-21.45 -28.919,-41.36c-0.439,-1.831 -0.778,-3.646 -1.024,-5.442c4.448,-0.089 8.875,-1.24 12.623,-3.59c5.258,-3.297 4.657,-7.989 1.292,-8.206c-0.995,-0.018 -1.296,0.149 -1.835,0.486c-0.248,0.155 -0.265,0.165 -0.818,0.711c-3.075,3.034 -7.439,4.204 -11.751,4.191c-0.2,-12.747 4.255,-24.361 11.367,-33.984c3.665,3.019 7.231,6.163 10.595,9.517c2.91,2.901 5.83,5.812 8.104,8.827c0.976,1.294 -0.939,4.044 -4.323,3.484c-4.754,-0.876 -5.841,4.593 -2.887,5.863c3.828,1.645 8.031,0.111 10.83,-2.774c0.372,1.153 0.642,2.042 0.658,3.53c0.028,2.638 -1.103,3.006 -0.579,4.451c0.779,2.145 4.042,2.709 5.563,0.857c0,0 1.426,-2.81 1.441,-4.944c0.002,-0.297 -0.007,-0.595 -0.026,-0.892c-0.026,-0.403 -0.071,-0.805 -0.131,-1.204c-0.066,-0.437 -0.152,-0.871 -0.253,-1.301c-0.259,-1.097 -0.622,-2.168 -1.052,-3.209c-4.658,-11.257 -14.398,-19.451 -23.876,-27.178c2.904,-3.224 6.11,-6.166 9.524,-8.784c4.698,-3.604 9.688,-6.794 14.903,-9.59c5.441,3.802 10.794,8.561 13.495,14.677c1.811,4.101 0.931,8.931 -0.432,13.294c-2.649,8.329 -3.954,16.605 -0.898,24.178c0.97,2.403 3.482,3.333 5.202,2.022c1.715,-1.308 0.937,-3.972 0.937,-3.972c-2.454,-5.84 -1.339,-11.613 0.18,-17.382c2.964,0.849 7.306,2.873 10.743,7.696c2.934,4.116 17.156,22.282 19.924,49.23c4.4,42.838 -8.783,61.643 -8.783,61.643c0,0 -4.617,10.94 -12.469,0.55Zm-116.294,-28.359c0.187,2.264 0.572,4.745 1.356,6.087c1.682,2.878 1.444,12.115 1.444,12.115c0,0 -0.715,3.605 -13.717,3.605c-13.001,0 -13.175,-3.958 -13.175,-3.958l-1.452,-17.134c6.928,4.488 15.797,5.36 22.929,1.265c1.047,-0.601 1.904,-1.266 2.615,-1.98Zm39.318,-117.02c-3.102,-0.975 -6.678,-3.195 -9.071,-5.746c-6.374,-6.795 -5.179,-18.089 -6.585,-26.03c-0.449,-2.535 -2.742,-3.486 -7.691,-1.787c-5.523,1.896 -11.091,5.29 -12.685,10.417c-0.759,2.442 -0.014,4.031 0.204,5.976c0.528,4.725 1.707,9.381 3.45,13.837c0.666,0.512 0.693,1.177 0.792,1.922c3.965,9.152 10.319,17.355 18.272,23.423c0.103,-0.22 0.208,-0.44 0.315,-0.659c2.753,-5.655 5.986,-10.708 11.246,-18.45c0.322,-0.474 0.637,-0.954 0.941,-1.442c0.295,-0.475 0.567,-0.962 0.812,-1.461Zm84.376,-1.176c1.22,-0.186 2.458,-0.291 3.697,-0.291c5.25,0 5.512,14.808 2.089,14.808c-2.77,0 -14.497,1.675 -20.328,3.145c0.361,-3.665 -0.193,-7.108 -1.398,-10.288c5.179,-3.557 10.471,-5.904 15.94,-7.374Zm-148.6,9.544l-11.236,2.519c0,0 -2.584,-0.598 -5.124,-3.897c-2.66,-3.456 -1.737,-7.44 -1.737,-7.44c0,0 2.174,-1.394 4.794,-3.082l13.303,-8.455l0,20.355Zm3.209,-0.719l0,-22.397c0.011,-0.106 0.011,-0.213 0,-0.319l0,-15.827c3.298,-3.688 8.145,-5.814 13.014,-6.5c1.649,-0.232 3.679,-0.087 5.323,-0.16c-1.772,9.288 -1.62,18.781 1.432,27.527c0.144,0.412 0.286,0.757 0.425,1.045c0.472,1.881 1.035,3.739 1.683,5.568c-8.286,1.762 -15.498,5.758 -21.377,11.192c-0.018,-0.155 -0.043,-0.231 -0.043,-0.231l-0.457,0.102Zm131.298,-23.101c4.114,2.959 10.459,8.126 8.484,10.613c-1.292,1.627 -4.2,3.589 -7.001,5.251c-0.827,0.446 -1.642,0.912 -2.444,1.398c-0.868,0.48 -1.665,0.903 -2.326,1.248c-1.264,-2.344 -2.871,-4.519 -4.696,-6.504c-2.092,-2.275 -4.179,-4.667 -6.3,-6.534c4.629,-2.104 9.403,-3.925 14.283,-5.472Zm-101.912,-62.804c-2.294,-6.151 -4.36,-10.443 -4.36,-10.443c0,0 0.458,-4.196 7.869,-6.701c7.412,-2.505 8.817,-1.001 8.817,-1.001c0,0 6.989,21.251 13.264,21.822c6.276,0.57 6.846,-22.82 6.846,-22.82c0,0 2.404,-1.277 8.771,-0.249c6.368,1.027 6.632,4.1 6.632,4.1l-0.186,3.943c-0.38,5.687 -1.171,11.275 -2.752,16.687c-1.498,5.046 2.789,1.846 2.789,1.846c1.853,-5.761 2.712,-11.671 3.121,-17.641c0.488,-0.919 1.02,-1.599 1.592,-1.918c3.587,-1.997 3.684,0.18 6.844,1.802c3.16,1.621 3.282,3.838 3.282,3.838c0,0 -9.101,14.975 -8.985,18.969c0.281,9.69 8.03,13.711 8.675,39.298c-4.909,-0.217 -9.564,-2.368 -12.148,-6.609c-3.506,-5.752 -10.267,-4.952 -14.377,-1.839c-4.576,3.466 -10.646,10.897 -7.563,17.067c0.508,1.018 0.756,1.431 1.844,2.909c2.227,2.974 3.174,6.014 3.17,8.914c-1.823,-0.732 -3.552,-1.695 -5.027,-3.001c-3.186,-2.822 -4.41,-6.937 -4.849,-11.074c-0.434,-4.413 1.021,-12.3 -2.992,-17.538c-1.619,-2.114 -4.255,-3.151 -6.883,-3.192c-3.636,-0.019 -7.224,1.279 -10.595,2.791c-4.704,2.111 -9.711,5.703 -12.176,10.209c0.056,-3.488 0.459,-6.985 1.174,-10.422c0.116,-0.199 0.173,-0.439 0.163,-0.727c-0.001,-0.009 -0.001,-0.018 -0.001,-0.027c0.831,-3.748 2.031,-7.417 3.552,-10.914c0.511,-1.175 1.073,-2.35 1.652,-3.525c3.723,-5.278 7.412,-9.005 5.522,-16.529c-0.077,-1.253 -0.341,-2.496 -0.84,-3.727c-0.081,-0.197 -0.164,-0.394 -0.246,-0.59c-0.415,-0.97 -0.841,-1.935 -1.25,-2.908c-0.112,-0.27 -0.229,-0.537 -0.349,-0.8Zm-32.595,54.076l0,8.39l-7.826,4.974c-4.27,-1.784 -10.928,-4.632 -10.928,-4.632c0,0 -0.253,-4.056 1.608,-8.264c1.86,-4.209 5.652,-5.162 5.652,-5.162l11.494,4.694Zm25.464,-26.879c-1.289,3.322 -2.375,6.74 -3.206,10.202c-0.463,-0.028 -0.986,-0.032 -1.558,-0.04c-2.751,-0.009 -5.542,0.286 -8.225,0.968c1.172,-5.2 4.153,-10.321 12.989,-11.13Z" style="fill:#9b3104;"/></svg>